<?xml version="1.0" encoding="utf-8"?>
<!-- Generator: Adobe Illustrator 23.0.0, SVG Export Plug-In . SVG Version: 6.00 Build 0)  -->
<svg version="1.1"
	 id="svg4261" xmlns:cc="http://creativecommons.org/ns#" xmlns:dc="http://purl.org/dc/elements/1.1/" xmlns:inkscape="http://www.inkscape.org/namespaces/inkscape" xmlns:rdf="http://www.w3.org/1999/02/22-rdf-syntax-ns#" xmlns:sodipodi="http://sodipodi.sourceforge.net/DTD/sodipodi-0.dtd" xmlns:svg="http://www.w3.org/2000/svg"
	 xmlns="http://www.w3.org/2000/svg" xmlns:xlink="http://www.w3.org/1999/xlink" x="0px" y="0px" viewBox="0 0 2359.1 1336.4"
	 style="enable-background:new 0 0 2359.1 1336.4;" xml:space="preserve">
<style type="text/css">
	.st0{opacity:0.64;}
	.st1{fill:#438EFF;}
	.st2{fill:#7BC9FF;}
</style>
<sodipodi:namedview  bordercolor="#666666" borderopacity="1.0" fit-margin-bottom="0" fit-margin-left="0" fit-margin-right="0" fit-margin-top="0" id="base" inkscape:current-layer="layer1" inkscape:cx="864.66768" inkscape:cy="-623.71877" inkscape:document-units="px" inkscape:guide-bbox="true" inkscape:pageopacity="0.0" inkscape:pageshadow="2" inkscape:zoom="0.22" pagecolor="#ffffff" showgrid="false" showguides="true">
	<sodipodi:guide  id="guide4043" orientation="1,0" position="-7376.5149,-599.99998"></sodipodi:guide>
</sodipodi:namedview>
<g id="layer1" transform="translate(-2900.1816,255.98863)" inkscape:groupmode="layer" inkscape:label="Layer 1" class="st0">
	<rect id="rect4433" x="2823.3" y="-463.2" class="st1" width="2800" height="2000"/>
	<path id="use5411" inkscape:connector-curvature="0" class="st2" d="M2823.3,285.6v-748.7h1400h1400v581.1
		c0,464.6-0.3,580.9-1.3,580.3c-0.7-0.4-7.8-5.3-15.8-10.9c-144.2-100.9-247.6-157.4-351.2-191.9c-99.2-33-195.2-43.6-289.8-32
		c-101.2,12.4-201.2,49.2-312.9,115.2c-43.7,25.8-82.2,51.3-166.1,110.1c-101.2,70.9-138.1,94.3-184.5,117.1
		c-41.7,20.5-77.8,32.5-114.5,38.1c-17.4,2.7-52.8,3.7-70.5,2c-46.9-4.4-93.7-18.3-155.5-46.1c-17.4-7.8-32-15.1-139-69.2
		c-75.7-38.2-119.6-57.2-173-74.6c-94.1-30.7-182-38.6-268-24.1c-117.6,19.9-231.7,81.6-352,190.3c-45.7,41.3-83.8,80-160.4,163.1
		c-20.3,22-38.9,42-41.3,44.5l-4.4,4.5V285.6z"/>
	<path id="path5432" inkscape:connector-curvature="0" class="st1" d="M4038.5,715.6c-90.4-33.5-167-90.1-372.5-274.9
		c-73.4-66-165.8-147.1-205.4-180.2C3251,85.2,3057.2-21.7,2863.9-68.8l-35.4-8.6v-191.3v-191.3h1261.4h1261.4l-78.8,77.1
		C5145-258.5,5016.3-111.9,4790,166.2c-306.9,377.2-404.6,478.1-519.9,536.7C4208.2,734.4,4104.5,740.1,4038.5,715.6z"/>
</g>
</svg>
